<?xml version="1.0" encoding="utf-8"?>
<!-- Generator: Adobe Illustrator 27.1.1, SVG Export Plug-In . SVG Version: 6.00 Build 0)  -->
<svg version="1.1" id="Calque_1" xmlns="http://www.w3.org/2000/svg" xmlns:xlink="http://www.w3.org/1999/xlink" x="0px" y="0px"
	 viewBox="0 0 1200 600" style="enable-background:new 0 0 1200 600;" xml:space="preserve">
<style type="text/css">
	.st0{fill:#1D71B8;}
	.st1{fill:#1D1D1B;}
</style>
<g id="SWISS-LIB_Couleur">
	<g id="Logo_Couleur">
		<path d="M362.4,324h5.6c1.2,8.9,9.5,17.4,21.9,17.4c15.7,0,23-10.5,23-18.9c0-10.1-8.7-15.2-18.3-17.6l-11.9-2.7
			c-17.3-4-19.7-13.9-19.7-20.6c0-13.5,12.9-23,26.3-23c14.1,0,25.1,8.3,26,21.8h-5.6c-0.7-10-9.4-16.5-20.4-16.5
			c-10.6,0-20.8,7.4-20.8,17.7c0,5,1.6,12.1,15.3,15.5l11.9,2.8c12.6,3.1,22.6,9.6,22.6,22.3c0,11.1-9.3,24.6-28.6,24.6
			C374,346.8,363.5,335.7,362.4,324z"/>
		<path d="M526.9,260.1h5.9l-28.9,85.2H498l-18.5-63.4l-18.4,63.4h-5.8l-28.9-85.2h5.8L458,337l18.7-63.8h5.8l18.5,63.9L526.9,260.1
			z"/>
		<path d="M548.7,345.3v-85.2h5.6v85.2H548.7z"/>
		<path d="M574.6,324h5.6c1.2,8.9,9.5,17.4,21.9,17.4c15.7,0,23-10.5,23-18.9c0-10.1-8.7-15.2-18.3-17.6l-11.9-2.7
			c-17.3-4-19.7-13.9-19.7-20.6c0-13.5,12.9-23,26.3-23c14.1,0,25.1,8.3,26,21.8H622c-0.7-10-9.4-16.5-20.4-16.5
			c-10.6,0-20.8,7.4-20.8,17.7c0,5,1.6,12.1,15.3,15.5l11.9,2.8c12.6,3.1,22.6,9.6,22.6,22.3c0,11.1-9.3,24.6-28.6,24.6
			C586.2,346.8,575.7,335.7,574.6,324z"/>
		<path d="M643.8,324h5.6c1.2,8.9,9.5,17.4,21.9,17.4c15.7,0,23-10.5,23-18.9c0-10.1-8.7-15.2-18.3-17.6l-11.9-2.7
			c-17.3-4-19.7-13.9-19.7-20.6c0-13.5,12.9-23,26.3-23c14.1,0,25.1,8.3,26,21.8h-5.6c-0.7-10-9.4-16.5-20.4-16.5
			c-10.6,0-20.8,7.4-20.8,17.7c0,5,1.6,12.1,15.3,15.5l11.9,2.8c12.6,3.1,22.6,9.6,22.6,22.3c0,11.1-9.3,24.6-28.6,24.6
			C655.4,346.8,644.9,335.7,643.8,324z"/>
		<path class="st0" d="M783.3,328.4h31.3v16.9h-50.7v-85.2h19.4L783.3,328.4L783.3,328.4z"/>
		<path class="st0" d="M826.8,345.3v-85.2h19.4v85.2H826.8z"/>
		<path class="st0" d="M930.4,320.8c0,11.6-7.5,24.5-27.6,24.5h-37v-85.2h34.5c15.6,0,25.6,9.4,25.6,22c0,5.9-2.2,14.8-12,17.7
			C925.2,301.4,930.4,311,930.4,320.8z M899,277h-13.7v16.3h13.6c4.6,0,7.7-3,7.7-8.2C906.5,280.9,904.3,277,899,277z M900.5,328.4
			c6.9,0,10.4-4.7,10.4-9.5c0-4.5-3.1-9.5-10.4-9.5h-15.2v19L900.5,328.4L900.5,328.4z"/>
		<path class="st0" d="M258.7,368.7c0-23-18.6-41.7-41.7-41.7c0,0,0,18.6,0,41.7L258.7,368.7L258.7,368.7z"/>
		<path class="st0" d="M335.7,255.9l-31-25.8H217v33.9c21.5,0,41.4,6.5,58.1,17.6c1.6-1.5,3.8-2.4,6.1-2.4c5,0,9.1,4.1,9.1,9.1
			c0,1.6-0.4,3.2-1.2,4.5c20.2,19.1,32.8,46.2,32.8,76.2h13.8L335.7,255.9L335.7,255.9z"/>
		<path class="st0" d="M237.8,279.5c4.9,0,8.9,4,8.9,8.9c0,0.2,0,0.4,0,0.6c32.5,12.1,55.6,43.4,55.6,80h16.1
			c0-28.9-12.1-55-31.6-73.5c-1.5,1.2-3.5,2-5.6,2c-5,0-9.1-4.1-9.1-9.1c0-1.4,0.3-2.7,0.9-3.9c-16.1-10.7-35.3-16.9-56-16.9v16.1
			c4.3,0,8.6,0.3,12.7,1C231.2,281.6,234.3,279.5,237.8,279.5z"/>
		<path class="st0" d="M275.2,338c0.4,0,0.8-0.1,1.2-0.1c4.9,0,8.9,4,8.9,8.9c0,3.1-1.6,5.9-4,7.5c1.1,4.8,1.7,9.7,1.7,14.8h15.9
			c0-35-22.1-64.9-53.1-76.6c-1.5,2.9-4.5,4.9-7.9,4.9c-4.9,0-8.9-4-8.9-8.9c0-0.1,0-0.2,0-0.3c-3.9-0.6-7.9-0.9-11.9-0.9v15.9
			C242.1,303.1,264,317.2,275.2,338z"/>
		<rect x="714" y="299.8" class="st1" width="32.9" height="5.8"/>
		<polygon class="st0" points="980.9,261 968,261 972.8,249.6 960.9,249.6 956.1,261 944.2,261 939,271.1 951.9,271.1 947.1,282.5 
			959,282.5 963.8,271.1 975.8,271.1 		"/>
		<g>
			<path class="st0" d="M278,355.6c-0.5,0.1-1.1,0.1-1.6,0.1c-4.9,0-8.9-4-8.9-8.9c0-3.3,1.8-6.1,4.4-7.7
				c-10.6-19.4-31.2-32.5-54.8-32.5v14.3c26.6,0,48.1,21.5,48.1,48.1h14.3C279.5,364.4,279,359.9,278,355.6z"/>
		</g>
	</g>
</g>
</svg>
