<?xml version="1.0" encoding="UTF-8"?>
<svg id="Calque_1" xmlns="http://www.w3.org/2000/svg" version="1.1" viewBox="0 0 763.9 139">
  <!-- Generator: Adobe Illustrator 30.6.0, SVG Export Plug-In . SVG Version: 2.1.4 Build 109)  -->
  <defs>
    <style>
      .st0 {
        fill: #1d71b8;
      }

      .st1 {
        fill: #1d1d1b;
      }
    </style>
  </defs>
  <g id="SWISS-LIB_Couleur">
    <g id="Logo_Couleur">
      <path d="M145.4,93.9h5.6c1.2,8.9,9.5,17.4,21.9,17.4,15.7,0,23-10.5,23-18.9,0-10.1-8.7-15.2-18.3-17.6l-11.9-2.7c-17.3-4-19.7-13.9-19.7-20.6,0-13.5,12.9-23,26.3-23,14.1,0,25.1,8.3,26,21.8h-5.6c-.7-10-9.4-16.5-20.4-16.5s-20.8,7.4-20.8,17.7c0,5,1.6,12.1,15.3,15.5l11.9,2.8c12.6,3.1,22.6,9.6,22.6,22.3,0,11.1-9.3,24.6-28.6,24.6-15.7,0-26.2-11.1-27.3-22.8Z"/>
      <path d="M309.9,30h5.9l-28.9,85.2h-5.9l-18.5-63.4-18.4,63.4h-5.8l-28.9-85.2h5.8l25.8,76.9,18.7-63.8h5.8l18.5,63.9,25.9-77Z"/>
      <path d="M331.7,115.2V30h5.6v85.2h-5.6Z"/>
      <path d="M357.6,93.9h5.6c1.2,8.9,9.5,17.4,21.9,17.4,15.7,0,23-10.5,23-18.9,0-10.1-8.7-15.2-18.3-17.6l-11.9-2.7c-17.3-4-19.7-13.9-19.7-20.6,0-13.5,12.9-23,26.3-23,14.1,0,25.1,8.3,26,21.8h-5.5c-.7-10-9.4-16.5-20.4-16.5s-20.8,7.4-20.8,17.7c0,5,1.6,12.1,15.3,15.5l11.9,2.8c12.6,3.1,22.6,9.6,22.6,22.3,0,11.1-9.3,24.6-28.6,24.6-15.8,0-26.3-11.1-27.4-22.8Z"/>
      <path d="M426.8,93.9h5.6c1.2,8.9,9.5,17.4,21.9,17.4,15.7,0,23-10.5,23-18.9,0-10.1-8.7-15.2-18.3-17.6l-11.9-2.7c-17.3-4-19.7-13.9-19.7-20.6,0-13.5,12.9-23,26.3-23,14.1,0,25.1,8.3,26,21.8h-5.6c-.7-10-9.4-16.5-20.4-16.5s-20.8,7.4-20.8,17.7c0,5,1.6,12.1,15.3,15.5l11.9,2.8c12.6,3.1,22.6,9.6,22.6,22.3,0,11.1-9.3,24.6-28.6,24.6-15.7,0-26.2-11.1-27.3-22.8Z"/>
      <path class="st0" d="M566.3,98.3h31.3v16.9h-50.7V30h19.4v68.3h0Z"/>
      <path class="st0" d="M609.8,115.2V30h19.4v85.2h-19.4Z"/>
      <path class="st0" d="M713.4,90.7c0,11.6-7.5,24.5-27.6,24.5h-37V30h34.5c15.6,0,25.6,9.4,25.6,22,0,5.9-2.2,14.8-12,17.7,11.3,1.6,16.5,11.2,16.5,21ZM682,46.9h-13.7v16.3h13.6c4.6,0,7.7-3,7.7-8.2-.1-4.2-2.3-8.1-7.6-8.1ZM683.5,98.3c6.9,0,10.4-4.7,10.4-9.5,0-4.5-3.1-9.5-10.4-9.5h-15.2v19h15.2Z"/>
      <path class="st0" d="M41.7,138.6C41.7,115.6,23.1,96.9,0,96.9v41.7h41.7Z"/>
      <path class="st0" d="M118.7,25.8L87.7,0H0v33.9c21.5,0,41.4,6.5,58.1,17.6,1.6-1.5,3.8-2.4,6.1-2.4,5,0,9.1,4.1,9.1,9.1,0,1.6-.4,3.2-1.2,4.5,20.2,19.1,32.8,46.2,32.8,76.2h13.8V25.8h0Z"/>
      <path class="st0" d="M20.8,49.4c4.9,0,8.9,4,8.9,8.9v.6c32.5,12.1,55.6,43.4,55.6,80h16.1c0-28.9-12.1-55-31.6-73.5-1.5,1.2-3.5,2-5.6,2-5,0-9.1-4.1-9.1-9.1,0-1.4.3-2.7.9-3.9C39.9,43.7,20.7,37.5,0,37.5v16.1c4.3,0,8.6.3,12.7,1,1.5-3.1,4.6-5.2,8.1-5.2Z"/>
      <path class="st0" d="M58.2,107.9c.4,0,.8-.1,1.2-.1,4.9,0,8.9,4,8.9,8.9,0,3.1-1.6,5.9-4,7.5,1.1,4.8,1.7,9.7,1.7,14.8h15.9c0-35-22.1-64.9-53.1-76.6-1.5,2.9-4.5,4.9-7.9,4.9-4.9,0-8.9-4-8.9-8.9v-.3c-3.9-.6-7.9-.9-11.9-.9v15.9c25-.1,46.9,14,58.1,34.8Z"/>
      <rect class="st1" x="497" y="69.7" width="32.9" height="5.8"/>
      <polygon class="st0" points="763.9 30.9 751 30.9 755.8 19.5 743.9 19.5 739.1 30.9 727.2 30.9 722 41 734.9 41 730.1 52.4 742 52.4 746.8 41 758.8 41 763.9 30.9"/>
      <path class="st0" d="M61,125.5c-.5.1-1.1.1-1.6.1-4.9,0-8.9-4-8.9-8.9,0-3.3,1.8-6.1,4.4-7.7C44.3,89.6,23.7,76.5.1,76.5v14.3c26.6,0,48.1,21.5,48.1,48.1h14.3c0-4.6-.5-9.1-1.5-13.4Z"/>
    </g>
  </g>
</svg>